<svg width="63" height="28" viewBox="0 0 63 28" fill="none" xmlns="http://www.w3.org/2000/svg">
<rect width="63" height="28" rx="8" fill="#598300"/>
<path d="M19.3776 18.4667V9.22667H23.0176C24.1282 9.22667 24.9402 9.45067 25.4536 9.89867C25.9669 10.3467 26.2236 10.9673 26.2236 11.7607C26.2236 12.246 26.0836 12.68 25.8036 13.0627C25.5236 13.436 25.1129 13.674 24.5716 13.7767V13.7907C25.1689 13.884 25.6309 14.1313 25.9576 14.5327C26.2936 14.9247 26.4616 15.382 26.4616 15.9047C26.4616 16.698 26.1722 17.3233 25.5936 17.7807C25.0149 18.238 24.1749 18.4667 23.0736 18.4667H19.3776ZM20.8476 17.2207H23.1436C23.7316 17.2207 24.1702 17.0993 24.4596 16.8567C24.7582 16.614 24.9076 16.2733 24.9076 15.8347C24.9076 15.396 24.7582 15.0553 24.4596 14.8127C24.1702 14.57 23.7316 14.4487 23.1436 14.4487H20.8476V17.2207ZM20.8476 13.2027H22.9056C24.0816 13.2027 24.6696 12.75 24.6696 11.8447C24.6696 10.9393 24.0816 10.4867 22.9056 10.4867H20.8476V13.2027ZM35.7311 9.22667V14.9247C35.7311 16.1473 35.4091 17.0667 34.7651 17.6827C34.1211 18.2987 33.1831 18.6067 31.9511 18.6067C30.7378 18.6067 29.8044 18.2987 29.1511 17.6827C28.5071 17.0667 28.1851 16.1473 28.1851 14.9247V9.22667H29.6831V14.7427C29.6831 15.6107 29.8698 16.2547 30.2431 16.6747C30.6164 17.0947 31.1858 17.3047 31.9511 17.3047C32.7258 17.3047 33.2998 17.0947 33.6731 16.6747C34.0464 16.2547 34.2331 15.6107 34.2331 14.7427V9.22667H35.7311ZM44.8729 9.22667L41.5689 14.9247V18.4667H40.0709V14.9247L36.7809 9.22667H38.4469L40.0989 12.2087L40.8269 13.5807L41.5549 12.2087L43.1929 9.22667H44.8729Z" fill="black"/>
</svg>
