<svg width="35" height="30" viewBox="0 0 35 30" fill="none" xmlns="http://www.w3.org/2000/svg">
<path d="M11.75 30C13.1307 30 14.25 28.8807 14.25 27.5C14.25 26.1193 13.1307 25 11.75 25C10.3693 25 9.25 26.1193 9.25 27.5C9.25 28.8807 10.3693 30 11.75 30Z" fill="#598300"/>
<path d="M29.25 30C30.6307 30 31.75 28.8807 31.75 27.5C31.75 26.1193 30.6307 25 29.25 25C27.8693 25 26.75 26.1193 26.75 27.5C26.75 28.8807 27.8693 30 29.25 30Z" fill="#598300"/>
<path d="M33.6875 4.43594C33.5119 4.22113 33.2906 4.04813 33.0398 3.92948C32.789 3.81083 32.515 3.74952 32.2375 3.75H8.46016L7.98125 1.03281C7.93018 0.743382 7.77877 0.481199 7.5536 0.292318C7.32843 0.103438 7.0439 -6.17512e-05 6.75 2.76408e-08H1.75C1.41848 2.76408e-08 1.10054 0.131696 0.866116 0.366117C0.631696 0.600537 0.5 0.918479 0.5 1.25C0.5 1.58152 0.631696 1.89946 0.866116 2.13388C1.10054 2.3683 1.41848 2.5 1.75 2.5H5.70156L9.26875 22.7172C9.31982 23.0066 9.47123 23.2688 9.6964 23.4577C9.92157 23.6466 10.2061 23.7501 10.5 23.75H30.5C30.8315 23.75 31.1495 23.6183 31.3839 23.3839C31.6183 23.1495 31.75 22.8315 31.75 22.5C31.75 22.1685 31.6183 21.8505 31.3839 21.6161C31.1495 21.3817 30.8315 21.25 30.5 21.25H11.5484L11.1078 18.75H29.9875C30.421 18.7494 30.841 18.5991 31.1764 18.3245C31.5118 18.0499 31.742 17.6678 31.8281 17.243L34.0781 5.99297C34.1323 5.72071 34.1254 5.4398 34.0579 5.17053C33.9903 4.90127 33.8638 4.65037 33.6875 4.43594V4.43594Z" fill="#598300"/>
</svg>
